#tb 0: 1/10
#media_type 0: video
#codec_id 0: rawvideo
#dimensions 0: 160x120
#sar 0: 0/1
0,          0,          0,        1,    57600, 0x3718ad00
0,          1,          1,        1,    57600, 0x54861558
0,          2,          2,        1,    57600, 0xea1d6233
0,          3,          3,        1,    57600, 0xf669a2fd
0,          4,          4,        1,    57600, 0xc9f76f31
0,          5,          5,        1,    57600, 0xe23c6d7b
0,          6,          6,        1,    57600, 0xbc9d6167
0,          7,          7,        1,    57600, 0x0ca63477
0,          8,          8,        1,    57600, 0xc0850d22
0,          9,          9,        1,    57600, 0x735d10b2
0,         10,         10,        1,    57600, 0x561f3c4a
0,         11,         11,        1,    57600, 0x84db9cf1
0,         12,         12,        1,    57600, 0x9fb841f4
0,         13,         13,        1,    57600, 0xeaf262ab
0,         14,         14,        1,    57600, 0x264886b4
0,         15,         15,        1,    57600, 0x5edc5518
0,         16,         16,        1,    57600, 0xd3e60c72
0,         17,         17,        1,    57600, 0x9cabaed7
0,         18,         18,        1,    57600, 0x616716cf
0,         19,         19,        1,    57600, 0xa43f61aa
0,         20,         20,        1,    57600, 0xdba3a0bd
0,         21,         21,        1,    57600, 0xa7dd6dfa
0,         22,         22,        1,    57600, 0xc3fa6c84
0,         23,         23,        1,    57600, 0xb1275fb8
0,         24,         24,        1,    57600, 0x2e39331f
0,         25,         25,        1,    57600, 0x5b9e0bca
0,         26,         26,        1,    57600, 0x0e760f5a
0,         27,         27,        1,    57600, 0xc56c3e69
0,         28,         28,        1,    57600, 0x51da9fb8
0,         29,         29,        1,    57600, 0xe3a1432b
0,         30,         30,        1,    57600, 0xe1b360a3
0,         31,         31,        1,    57600, 0x30b383cd
0,         32,         32,        1,    57600, 0x950c5439
0,         33,         33,        1,    57600, 0x8f9d0ca2
